<?xml version="1.0" encoding="utf-8"?>
<svg version="1.1" xmlns:xlink="http://www.w3.org/1999/xlink" width="675px" height="10px" preserveAspectRatio="xMinYMid meet" viewBox="628 346  675 8" xmlns="http://www.w3.org/2000/svg">
  <defs>
    <mask fill="white" id="clip301">
      <path d="M 969 338  L 1041 338  L 1041 363  L 969 363  Z M 623 259  L 1301 259  L 1301 372  L 623 372  Z " fill-rule="evenodd" />
    </mask>
  </defs>
  <path d="M 1298 259  L 1298 350  L 1098 350  A 3 3 0 0 0 1095 347 A 3 3 0 0 0 1092 350 L 872 350  A 3 3 0 0 0 869 347 A 3 3 0 0 0 866 350 L 633 350  L 633 357  " stroke-width="2" stroke="#0099cc" fill="none" mask="url(#clip301)" />
  <path d="M 625.4 356  L 633 363  L 640.6 356  L 625.4 356  Z " fill-rule="nonzero" fill="#0099cc" stroke="none" mask="url(#clip301)" />
</svg>