<?xml version="1.0" encoding="utf-8"?>
<svg version="1.1" xmlns:xlink="http://www.w3.org/1999/xlink" width="51px" height="81px" xmlns="http://www.w3.org/2000/svg">
  <g transform="matrix(1 0 0 1 -106 -97 )">
    <path d="M 131 97.5  C 136.32 97.5  140.5 101.68  140.5 107  C 140.5 112.32  136.32 116.5  131 116.5  C 125.68 116.5  121.5 112.32  121.5 107  C 121.5 101.68  125.68 97.5  131 97.5  Z " fill-rule="nonzero" fill="#ffffff" stroke="none" />
    <path d="M 131 97.5  C 136.32 97.5  140.5 101.68  140.5 107  C 140.5 112.32  136.32 116.5  131 116.5  C 125.68 116.5  121.5 112.32  121.5 107  C 121.5 101.68  125.68 97.5  131 97.5  Z " stroke-width="1" stroke="#797979" fill="none" />
    <path d="M 106 127  L 156 127  M 131 117  L 131 152  M 111 177  L 131 152  M 131 152  L 151 177  " stroke-width="1" stroke="#797979" fill="none" />
  </g>
</svg>