<?xml version="1.0" encoding="utf-8"?>
<svg version="1.1" xmlns:xlink="http://www.w3.org/1999/xlink" width="45px" height="37px" xmlns="http://www.w3.org/2000/svg">
  <g transform="matrix(1 0 0 1 -41 -257 )">
    <path d="M 16.9281818181818 23.7587583148559  C 16.92 16.7935698447893  22.8927272727273 11.1246119733924  30.4527272727273 11.1246119733924  C 30.9763636363636 11.1246119733924  31.4836363636364 11.1492239467849  31.9909090909091 11.2148558758315  C 30.6327272727273 4.7829268292683  23.7518181818182 0  15.93 0  C 7.15909090909092 0  0 5.97250554323726  0 13.5694013303769  C 0 17.950332594235  2.39727272727272 21.5682926829268  6.37363636363637 24.3658536585366  L 4.79454545454544 29.1733924611973  L 10.3581818181818 26.3758314855876  C 12.3545454545454 26.769623059867  13.9418181818182 27.1716186252772  15.9381818181818 27.1716186252772  C 16.4454545454546 27.1716186252772  16.9281818181818 27.1470066518847  17.4354545454545 27.1059866962306  C 17.1081818181818 26.0476718403548  16.9281818181818 24.9237250554324  16.9281818181818 23.7587583148559  Z M 19.5054545454546 8.78647450110866  C 19.5136363636364 7.58048780487805  20.7 6.78470066518846  21.9027272727273 6.78470066518846  C 23.0890909090909 6.78470066518846  23.8827272727273 7.58048780487805  23.8827272727273 8.78647450110866  C 23.8827272727273 9.97605321507761  23.0890909090909 10.7718403547672  21.9027272727273 10.7718403547672  C 20.6918181818182 10.7718403547672  19.5054545454546 9.97605321507761  19.5054545454546 8.78647450110866  Z M 12.7390909090909 8.78647450110866  C 12.7390909090909 9.98425720620843  11.9536363636364 10.7718403547672  10.7427272727273 10.7718403547672  C 9.55636363636364 10.7718403547672  8.34545454545455 9.97605321507761  8.34545454545455 8.78647450110866  C 8.34545454545455 7.57228381374722  9.55636363636364 6.78470066518846  10.7427272727273 6.78470066518846  C 11.9536363636364 6.78470066518846  12.7390909090909 7.58048780487805  12.7390909090909 8.78647450110866  Z M 39.42 32.7749445676275  C 42.6272727272727 30.3629711751663  45 27.1716186252772  45 23.5782705099778  C 45 17.1873614190687  38.6263636363636 11.9860310421286  31.4672727272727 11.9860310421286  C 23.8827272727273 11.9860310421286  17.9345454545455 17.1873614190687  17.9345454545455 23.5782705099778  C 17.9345454545455 29.9691796008869  23.8909090909091 35.1705099778271  31.4672727272727 35.1705099778271  C 33.0463636363636 35.1705099778271  34.65 34.7521064301552  36.2618181818182 34.3583148558758  L 40.6309090909091 36.7620842572062  L 39.42 32.7749445676275  Z M 29.07 19.960310421286  C 29.07 20.7807095343681  28.2763636363636 21.5682926829268  27.0736363636364 21.5682926829268  C 26.28 21.5682926829268  25.4945454545454 20.7725055432372  25.4945454545454 19.960310421286  C 25.4945454545454 19.1645232815964  26.2881818181818 18.3769401330377  27.0736363636364 18.3769401330377  C 28.2845454545455 18.3769401330377  29.07 19.1727272727273  29.07 19.960310421286  Z M 37.8327272727273 19.960310421286  C 37.8409090909091 20.7807095343681  37.0227272727273 21.5682926829268  35.8363636363636 21.5682926829268  C 35.0427272727273 21.5682926829268  34.2572727272727 20.7725055432372  34.2572727272727 19.960310421286  C 34.2572727272727 19.1645232815964  35.0509090909091 18.3769401330377  35.8363636363636 18.3769401330377  C 37.0227272727273 18.3769401330377  37.8327272727273 19.1727272727273  37.8327272727273 19.960310421286  Z " fill-rule="nonzero" fill="#ffffff" stroke="none" transform="matrix(1 0 0 1 41 257 )" />
  </g>
</svg>