<?xml version="1.0" encoding="utf-8"?>
<svg version="1.1" xmlns:xlink="http://www.w3.org/1999/xlink" width="49px" height="37px" xmlns="http://www.w3.org/2000/svg">
  <g transform="matrix(1 0 0 1 -39 -175 )">
    <path d="M 15.4507378472222 17.6448567708333  C 15.7130353009259 17.9098307291667  15.8441840277778 18.2751736111111  15.8441840277778 18.7408854166667  C 15.8441840277778 19.3350694444444  15.6634114583333 19.8288845486111  15.3018663194444 20.2223307291667  C 14.9403211805556 20.6157769097222  14.4972511574074 20.8125  13.97265625 20.8125  C 13.5614872685185 20.8125  13.2318431712963 20.6840277777778  12.9837239583333 20.4270833333333  C 12.7356047453704 20.1701388888889  12.6115451388889 19.8168402777778  12.6115451388889 19.3671875  C 12.6115451388889 18.7730034722222  12.7887731481482 18.2711588541667  13.1432291666667 17.8616536458333  C 13.4976851851852 17.4521484375  13.9372106481482 17.2473958333333  14.4618055555556 17.2473958333333  C 14.8587962962963 17.2473958333333  15.1884403935185 17.3798828125  15.4507378472222 17.6448567708333  Z M 32.2838541666667 14.4169921875  C 32.4539930555556 14.5856119791667  32.5390625 14.8305121527778  32.5390625 15.1516927083333  C 32.5390625 15.826171875  32.3831018518519 16.2838541666667  32.0711805555556 16.5247395833333  C 31.7592592592593 16.765625  31.2913773148148 16.8860677083333  30.6675347222222 16.8860677083333  L 29.9869791666667 16.91015625  L 30.3485243055556 14.3326822916667  C 30.376880787037 14.1560329861111  30.4690393518519 14.0677083333333  30.625 14.0677083333333  L 31.0078125 14.0677083333333  C 31.3197337962963 14.0677083333333  31.5678530092593 14.0837673611111  31.7521701388889 14.1158854166667  C 31.9364872685185 14.1480034722222  32.1137152777778 14.2483723958333  32.2838541666667 14.4169921875  Z M 39.6104600694445 17.6448567708333  C 39.8727575231482 17.9098307291667  40.00390625 18.2751736111111  40.00390625 18.7408854166667  C 40.00390625 19.3190104166667  39.8231336805556 19.8088107638889  39.4615885416667 20.2102864583333  C 39.1000434027778 20.6117621527778  38.6640625 20.8125  38.1536458333333 20.8125  C 37.7424768518519 20.8125  37.4092881944445 20.6840277777778  37.1540798611111 20.4270833333333  C 36.8988715277778 20.1701388888889  36.7712673611111 19.8168402777778  36.7712673611111 19.3671875  C 36.7712673611111 18.7730034722222  36.9484953703704 18.2711588541667  37.3029513888889 17.8616536458333  C 37.6574074074074 17.4521484375  38.0969328703704 17.2473958333333  38.6215277777778 17.2473958333333  C 39.0185185185185 17.2473958333333  39.3481626157407 17.3798828125  39.6104600694445 17.6448567708333  Z M 9.86805555555556 17.8616536458333  C 10.5627893518519 17.0827907986111  10.91015625 16.0028211805556  10.91015625 14.6217447916667  C 10.91015625 13.6742621527778  10.6372251157407 12.9877387152778  10.0913628472222 12.5621744791667  C 9.5455005787037 12.1366102430556  8.83304398148148 11.923828125  7.95399305555556 11.923828125  L 4.55121527777778 11.923828125  C 4.2818287037037 11.923828125  4.13295717592593 12.0763888888889  4.10460069444444 12.3815104166667  L 2.72222222222222 22.2096354166667  C 2.70804398148148 22.3059895833333  2.72931134259259 22.3943142361111  2.78602430555556 22.474609375  C 2.84273726851852 22.5549045138889  2.91362847222222 22.5950520833333  2.99869791666667 22.5950520833333  L 4.61501736111111 22.5950520833333  C 4.89858217592593 22.5950520833333  5.05454282407407 22.4424913194444  5.08289930555556 22.1373697916667  L 5.46571180555556 19.4876302083333  C 5.4798900462963 19.3591579861111  5.52951388888889 19.2547743055556  5.61458333333333 19.1744791666667  C 5.69965277777778 19.0941840277778  5.80598958333333 19.0419921875  5.93359375 19.0179036458333  C 6.06119791666667 18.9938151041667  6.18171296296296 18.9817708333333  6.29513888888889 18.9817708333333  C 6.40856481481482 18.9817708333333  6.54325810185185 18.9898003472222  6.69921875 19.005859375  C 6.85517939814815 19.0219184027778  6.95442708333333 19.0299479166667  6.99696180555556 19.0299479166667  C 8.21629050925926 19.0299479166667  9.17332175925926 18.6405164930556  9.86805555555556 17.8616536458333  Z M 17.0138888888889 22.5950520833333  C 17.283275462963 22.5950520833333  17.4392361111111 22.4424913194444  17.4817708333333 22.1373697916667  L 18.3537326388889 15.8502604166667  C 18.3679108796296 15.75390625  18.3466435185185 15.6655815972222  18.2899305555556 15.5852864583333  C 18.2332175925926 15.5049913194444  18.1623263888889 15.46484375  18.0772569444444 15.46484375  L 16.4609375 15.46484375  C 16.2624421296296 15.46484375  16.1419270833333 15.7298177083333  16.0993923611111 16.259765625  C 15.7165798611111 15.6174045138889  15.0431134259259 15.2962239583333  14.0789930555556 15.2962239583333  C 13.0581597222222 15.2962239583333  12.1897424768519 15.7298177083333  11.4737413194444 16.5970052083333  C 10.757740162037 17.4641927083333  10.3997395833333 18.4839409722222  10.3997395833333 19.65625  C 10.3997395833333 20.6037326388889  10.6443142361111 21.3585069444444  11.1334635416667 21.9205729166667  C 11.6226128472222 22.4826388888889  12.2783564814815 22.763671875  13.1006944444444 22.763671875  C 13.4976851851852 22.763671875  13.9088541666667 22.6673177083333  14.3342013888889 22.474609375  C 14.7595486111111 22.2819010416667  15.0998263888889 22.0249565972222  15.3550347222222 21.7037760416667  C 15.2983217592593 21.896484375  15.2699652777778 22.0651041666667  15.2699652777778 22.2096354166667  C 15.2699652777778 22.4665798611111  15.3621238425926 22.5950520833333  15.5464409722222 22.5950520833333  L 17.0138888888889 22.5950520833333  Z M 26.9457465277778 15.970703125  C 26.9741030092593 15.9385850694444  26.98828125 15.8823784722222  26.98828125 15.8020833333333  C 26.98828125 15.7217881944444  26.9599247685185 15.6455078125  26.9032118055556 15.5732421875  C 26.8464988425926 15.5009765625  26.7826967592593 15.46484375  26.7118055555556 15.46484375  L 25.07421875 15.46484375  C 24.9182581018519 15.46484375  24.7906539351852 15.5451388888889  24.69140625 15.7057291666667  L 22.4370659722222 19.4635416666667  L 21.5013020833333 15.8502604166667  C 21.4304108796296 15.5933159722222  21.2744502314815 15.46484375  21.0334201388889 15.46484375  L 19.4383680555556 15.46484375  C 19.3674768518519 15.46484375  19.3036747685185 15.5009765625  19.2469618055556 15.5732421875  C 19.1902488425926 15.6455078125  19.1618923611111 15.7217881944444  19.1618923611111 15.8020833333333  C 19.1618923611111 15.8342013888889  19.3001302083333 16.3079427083333  19.5766059027778 17.2233072916667  C 19.8530815972222 18.138671875  20.1508246527778 19.1263020833333  20.4698350694444 20.1861979166667  C 20.7888454861111 21.24609375  20.9554398148148 21.8081597222222  20.9696180555556 21.8723958333333  C 19.8070023148148 23.6710069444444  19.2256944444444 24.6345486111111  19.2256944444444 24.7630208333333  C 19.2256944444444 24.9717881944444  19.3178530092593 25.076171875  19.5021701388889 25.076171875  L 21.1397569444444 25.076171875  C 21.2957175925926 25.076171875  21.4233217592593 24.9958767361111  21.5225694444444 24.8352864583333  L 26.9457465277778 15.970703125  Z M 34.0277777777778 17.8616536458333  C 34.7225115740741 17.0827907986111  35.0698784722222 16.0028211805556  35.0698784722222 14.6217447916667  C 35.0698784722222 13.6742621527778  34.796947337963 12.9877387152778  34.2510850694445 12.5621744791667  C 33.7052228009259 12.1366102430556  32.9927662037037 11.923828125  32.1137152777778 11.923828125  L 28.7322048611111 11.923828125  C 28.4486400462963 11.923828125  28.2926793981482 12.0763888888889  28.2643229166667 12.3815104166667  L 26.8819444444444 22.2096354166667  C 26.8677662037037 22.3059895833333  26.8890335648148 22.3943142361111  26.9457465277778 22.474609375  C 27.0024594907407 22.5549045138889  27.0733506944444 22.5950520833333  27.1584201388889 22.5950520833333  L 28.90234375 22.5950520833333  C 29.0724826388889 22.5950520833333  29.1859085648148 22.4906684027778  29.2426215277778 22.2819010416667  L 29.6254340277778 19.4876302083333  C 29.6396122685185 19.3591579861111  29.6892361111111 19.2547743055556  29.7743055555556 19.1744791666667  C 29.859375 19.0941840277778  29.9657118055556 19.0419921875  30.0933159722222 19.0179036458333  C 30.2209201388889 18.9938151041667  30.3414351851852 18.9817708333333  30.4548611111111 18.9817708333333  C 30.568287037037 18.9817708333333  30.7029803240741 18.9898003472222  30.8589409722222 19.005859375  C 31.0149016203704 19.0219184027778  31.1141493055556 19.0299479166667  31.1566840277778 19.0299479166667  C 32.3760127314815 19.0299479166667  33.3330439814815 18.6405164930556  34.0277777777778 17.8616536458333  Z M 41.1736111111111 22.5950520833333  C 41.4429976851852 22.5950520833333  41.5989583333333 22.4424913194444  41.6414930555556 22.1373697916667  L 42.5134548611111 15.8502604166667  C 42.5276331018519 15.75390625  42.5063657407407 15.6655815972222  42.4496527777778 15.5852864583333  C 42.3929398148148 15.5049913194444  42.3220486111111 15.46484375  42.2369791666667 15.46484375  L 40.6206597222222 15.46484375  C 40.4221643518519 15.46484375  40.3016493055556 15.7298177083333  40.2591145833333 16.259765625  C 39.8904803240741 15.6174045138889  39.2170138888889 15.2962239583333  38.2387152777778 15.2962239583333  C 37.2178819444445 15.2962239583333  36.3494646990741 15.7298177083333  35.6334635416667 16.5970052083333  C 34.9174623842593 17.4641927083333  34.5594618055556 18.4839409722222  34.5594618055556 19.65625  C 34.5594618055556 20.6037326388889  34.8040364583333 21.3585069444444  35.2931857638889 21.9205729166667  C 35.7823350694445 22.4826388888889  36.4380787037037 22.763671875  37.2604166666667 22.763671875  C 37.6715856481482 22.763671875  38.08984375 22.6673177083333  38.5151909722222 22.474609375  C 38.9405381944445 22.2819010416667  39.2737268518519 22.0249565972222  39.5147569444445 21.7037760416667  C 39.5147569444445 21.7198350694444  39.5005787037037 21.7921006944444  39.4722222222222 21.9205729166667  C 39.4438657407407 22.0490451388889  39.4296875 22.1453993055556  39.4296875 22.2096354166667  C 39.4296875 22.4665798611111  39.5218460648148 22.5950520833333  39.7061631944445 22.5950520833333  L 41.1736111111111 22.5950520833333  Z M 44.8953993055556 22.1373697916667  L 46.2777777777778 12.28515625  L 46.2777777777778 12.2610677083333  C 46.2777777777778 12.0362413194444  46.185619212963 11.923828125  46.0013020833333 11.923828125  L 44.4275173611111 11.923828125  C 44.271556712963 11.923828125  44.1793981481482 12.0121527777778  44.1510416666667 12.1888020833333  L 42.7686631944445 22.2096354166667  L 42.7473958333333 22.2578125  C 42.7473958333333 22.3381076388889  42.7757523148148 22.4143880208333  42.8324652777778 22.4866536458333  C 42.8891782407407 22.5589192708333  42.9600694444445 22.5950520833333  43.0451388888889 22.5950520833333  L 44.4487847222222 22.5950520833333  C 44.7181712962963 22.5950520833333  44.8670428240741 22.4424913194444  44.8953993055556 22.1373697916667  Z M 8.08159722222222 14.3447265625  C 8.33680555555556 14.5294053819444  8.421875 14.9188368055556  8.33680555555556 15.5130208333333  C 8.26591435185185 16.0750868055556  8.08159722222222 16.4444444444444  7.78385416666667 16.62109375  C 7.48611111111111 16.7977430555556  7.06076388888889 16.8860677083333  6.5078125 16.8860677083333  L 5.80598958333333 16.91015625  L 6.16753472222222 14.3326822916667  C 6.1958912037037 14.1560329861111  6.28804976851852 14.0677083333333  6.44401041666667 14.0677083333333  L 6.84809027777778 14.0677083333333  C 7.41521990740741 14.0677083333333  7.82638888888889 14.1600477430556  8.08159722222222 14.3447265625  Z M 48.1918402777778 0.915364583333335  C 48.7306134259259 1.52560763888889  49 2.24826388888889  49 3.08333333333333  L 49 33.9166666666667  C 49 34.7517361111111  48.7306134259259 35.4743923611111  48.1918402777778 36.0846354166667  C 47.6530671296296 36.6948784722222  47.0150462962963 37  46.2777777777778 37  L 2.72222222222222 37  C 1.9849537037037 37  1.34693287037037 36.6948784722222  0.808159722222222 36.0846354166667  C 0.269386574074074 35.4743923611111  0 34.7517361111111  0 33.9166666666667  L 0 3.08333333333333  C 0 2.24826388888889  0.269386574074074 1.52560763888889  0.808159722222222 0.915364583333335  C 1.34693287037037 0.305121527777774  1.9849537037037 0  2.72222222222222 0  L 46.2777777777778 0  C 47.0150462962963 0  47.6530671296296 0.305121527777774  48.1918402777778 0.915364583333335  Z " fill-rule="nonzero" fill="#ffffff" stroke="none" transform="matrix(1 0 0 1 39 175 )" />
  </g>
</svg>