<?xml version="1.0" encoding="utf-8"?>
<svg version="1.1" xmlns:xlink="http://www.w3.org/1999/xlink" width="43px" height="49px" xmlns="http://www.w3.org/2000/svg">
  <g transform="matrix(1 0 0 1 -283 -109 )">
    <path d="M 304 109.5  C 308.424 109.5  311.9 112.976  311.9 117.4  C 311.9 121.824  308.424 125.3  304 125.3  C 299.576 125.3  296.1 121.824  296.1 117.4  C 296.1 112.976  299.576 109.5  304 109.5  Z " fill-rule="nonzero" fill="#ffffff" stroke="none" />
    <path d="M 304 109.5  C 308.424 109.5  311.9 112.976  311.9 117.4  C 311.9 121.824  308.424 125.3  304 125.3  C 299.576 125.3  296.1 121.824  296.1 117.4  C 296.1 112.976  299.576 109.5  304 109.5  Z " stroke-width="1" stroke="#797979" fill="none" />
    <path d="M 283 134.2  L 325 134.2  M 304 125.8  L 304 142.6  M 287.2 157  L 304 142.6  M 304 142.6  L 320.8 157  " stroke-width="1" stroke="#797979" fill="none" />
  </g>
</svg>