<?xml version="1.0" encoding="utf-8"?>
<svg version="1.1" xmlns:xlink="http://www.w3.org/1999/xlink" width="10px" height="8px" xmlns="http://www.w3.org/2000/svg">
  <g transform="matrix(1 0 0 1 -188 -545 )">
    <path d="M 9.32942708333333 1.9921875  C 9.77647569444444 2.60503472222222  10 3.27430555555555  10 4  C 10 4.72569444444444  9.77647569444444 5.39496527777778  9.32942708333333 6.0078125  C 8.88237847222222 6.62065972222222  8.27582465277778 7.10590277777778  7.509765625 7.46354166666667  C 6.74370659722222 7.82118055555556  5.90711805555556 8  5 8  C 4.09288194444444 8  3.25629340277778 7.82118055555556  2.490234375 7.46354166666667  C 1.72417534722222 7.10590277777778  1.11762152777778 6.62065972222222  0.670572916666667 6.0078125  C 0.223524305555556 5.39496527777778  0 4.72569444444444  0 4  C 0 3.27430555555555  0.223524305555556 2.60503472222222  0.670572916666667 1.9921875  C 1.11762152777778 1.37934027777778  1.72417534722222 0.894097222222221  2.490234375 0.536458333333333  C 3.25629340277778 0.178819444444444  4.09288194444444 0  5 0  C 5.90711805555556 0  6.74370659722222 0.178819444444444  7.509765625 0.536458333333333  C 8.27582465277778 0.894097222222221  8.88237847222222 1.37934027777778  9.32942708333333 1.9921875  Z " fill-rule="nonzero" fill="#555555" stroke="none" transform="matrix(1 0 0 1 188 545 )" />
  </g>
</svg>