<?xml version="1.0" encoding="utf-8"?>
<svg version="1.1" xmlns:xlink="http://www.w3.org/1999/xlink" width="24px" height="21px" xmlns="http://www.w3.org/2000/svg">
  <g transform="matrix(1 0 0 1 -18 -66 )">
    <path d="M 22.28125 12.8031850961538  C 22.3604166666667 12.7232572115385  22.4 12.6286057692308  22 12.5192307692308  L 22 2.01923076923077  C 22.4 1.90985576923077  22.3604166666667 1.81520432692308  22.28125 1.73527644230769  C 22.2020833333333 1.65534855769231  22.1083333333333 1.61538461538461  22 2  L 2 2  C 1.89166666666667 1.61538461538461  1.79791666666667 1.65534855769231  1.71875 1.73527644230769  C 1.63958333333333 1.81520432692308  1.6 1.90985576923077  2 2.01923076923077  L 2 12.5192307692308  C 1.6 12.6286057692308  1.63958333333333 12.7232572115385  1.71875 12.8031850961538  C 1.79791666666667 12.8831129807692  1.89166666666667 12.9230769230769  2 13  L 22 13  C 22.1083333333333 12.9230769230769  22.2020833333333 12.8831129807692  22.28125 12.8031850961538  Z M 23.4125 0.593149038461538  C 23.8041666666667 0.98858173076923  24 1.46394230769231  24 2.01923076923077  L 24 15.75  C 24 16.3052884615385  23.8041666666667 16.7806490384615  23.4125 17.1760817307692  C 23.0208333333333 17.5715144230769  22.55 17.7692307692308  22 17.7692307692308  L 15.2 17.7692307692308  C 15.2 18.0805288461538  15.2666666666667 18.4065504807692  15.4 18.7472956730769  C 15.5333333333333 19.0880408653846  15.6666666666667 19.38671875  15.8 19.6433293269231  C 15.9333333333333 19.8999399038462  16 20.0829326923077  16 20.1923076923077  C 16 20.4110576923077  15.9208333333333 20.6003605769231  15.7625 20.7602163461538  C 15.6041666666667 20.9200721153846  15.4166666666667 21  15.2 21  L 8.8 21  C 8.58333333333334 21  8.39583333333334 20.9200721153846  8.2375 20.7602163461538  C 8.07916666666667 20.6003605769231  8 20.4110576923077  8 20.1923076923077  C 8 20.0745192307692  8.06666666666667 19.8894230769231  8.2 19.6370192307692  C 8.33333333333333 19.3846153846154  8.46666666666667 19.0901442307692  8.6 18.7536057692308  C 8.73333333333333 18.4170673076923  8.8 18.0889423076923  8.8 17.7692307692308  L 2 17.7692307692308  C 1.45 17.7692307692308  0.979166666666667 17.5715144230769  0.5875 17.1760817307692  C 0.195833333333333 16.7806490384615  0 16.3052884615385  0 15.75  L 0 2.01923076923077  C 0 1.46394230769231  0.195833333333333 0.98858173076923  0.5875 0.593149038461538  C 0.979166666666667 0.197716346153846  1.45 0  2 0  L 22 0  C 22.55 0  23.0208333333333 0.197716346153846  23.4125 0.593149038461538  Z " fill-rule="nonzero" fill="#7f7f7f" stroke="none" transform="matrix(1 0 0 1 18 66 )" />
  </g>
</svg>