<?xml version="1.0" encoding="utf-8"?>
<svg version="1.1" xmlns:xlink="http://www.w3.org/1999/xlink" width="25px" height="25px" xmlns="http://www.w3.org/2000/svg">
  <g transform="matrix(1 0 0 1 -335 -258 )">
    <path d="M 12.5 25  C 19.4052419354839 25  25 19.4052419354839  25 12.5  C 25 5.59475806451613  19.4052419354839 0  12.5 0  C 5.59475806451613 0  0 5.59475806451613  0 12.5  C 0 19.4052419354839  5.59475806451613 25  12.5 25  Z M 12.5 22.5806451612903  C 6.9304435483871 22.5806451612903  2.41935483870967 18.0695564516129  2.41935483870967 12.5  C 2.41935483870967 6.9304435483871  6.9304435483871 2.41935483870968  12.5 2.41935483870968  C 18.0695564516129 2.41935483870968  22.5806451612903 6.9304435483871  22.5806451612903 12.5  C 22.5806451612903 18.0695564516129  18.0695564516129 22.5806451612903  12.5 22.5806451612903  Z M 6.65322580645162 14.1129032258064  C 6.32056451612902 14.1129032258064  6.04838709677421 13.8407258064516  6.04838709677421 13.508064516129  L 6.04838709677421 11.491935483871  C 6.04838709677421 11.1592741935484  6.32056451612902 10.8870967741936  6.65322580645162 10.8870967741936  L 12.5 10.8870967741936  L 12.5 7.51008064516129  C 12.5 6.97076612903226  13.1502016129032 6.70362903225806  13.5332661290323 7.08165322580645  L 18.523185483871 12.0715725806452  C 18.7600806451613 12.3084677419355  18.7600806451613 12.6915322580645  18.523185483871 12.9284274193548  L 13.5332661290323 17.9183467741936  C 13.1502016129032 18.3014112903226  12.5 18.0292338709677  12.5 17.4899193548387  L 12.5 14.1129032258064  L 6.65322580645162 14.1129032258064  Z " fill-rule="nonzero" fill="#aaaaaa" stroke="none" transform="matrix(1 0 0 1 335 258 )" />
  </g>
</svg>