<?xml version="1.0" encoding="utf-8"?>
<svg version="1.1" xmlns:xlink="http://www.w3.org/1999/xlink" width="12px" height="5px" xmlns="http://www.w3.org/2000/svg">
  <g transform="matrix(1 0 0 1 -256 -305 )">
    <path d="M 11.77734375 0.164930555555556  C 11.92578125 0.274884259259259  12 0.405092592592591  12 0.555555555555556  C 12 0.706018518518518  11.92578125 0.836226851851851  11.77734375 0.946180555555556  L 6.52734375 4.83506944444444  C 6.37890625 4.94502314814815  6.203125 5  6 5  C 5.796875 5  5.62109375 4.94502314814815  5.47265625 4.83506944444444  L 0.22265625 0.946180555555556  C 0.07421875 0.836226851851851  0 0.706018518518518  0 0.555555555555556  C 0 0.405092592592591  0.07421875 0.274884259259259  0.22265625 0.164930555555556  C 0.37109375 0.0549768518518512  0.546875 0  0.75 0  L 11.25 0  C 11.453125 0  11.62890625 0.0549768518518512  11.77734375 0.164930555555556  Z " fill-rule="nonzero" fill="#aaaaaa" stroke="none" transform="matrix(1 0 0 1 256 305 )" />
  </g>
</svg>