<?xml version="1.0" encoding="utf-8"?>
<svg version="1.1" xmlns:xlink="http://www.w3.org/1999/xlink" width="20px" height="18px" xmlns="http://www.w3.org/2000/svg">
  <g transform="matrix(1 0 0 1 -15 -13 )">
    <path d="M 0 2.55681818181818  C 0 2.9602932224026  0.319776785714282 3.28733766233766  0.714285714285711 3.28733766233766  L 19.2857142857143 3.28733766233766  C 19.6802232142857 3.28733766233766  20 2.9602932224026  20 2.55681818181818  L 20 0.730519480519477  C 20 0.327044439935061  19.6802232142857 0  19.2857142857143 0  L 0.714285714285711 0  C 0.319776785714282 0  0 0.327044439935061  0 0.730519480519477  L 0 2.55681818181818  Z M 0 9.86201298701299  C 0 10.2654880275974  0.319776785714282 10.5925324675325  0.714285714285711 10.5925324675325  L 19.2857142857143 10.5925324675325  C 19.6802232142857 10.5925324675325  20 10.2654880275974  20 9.86201298701299  L 20 8.03571428571428  C 20 7.63223924512987  19.6802232142857 7.30519480519481  19.2857142857143 7.30519480519481  L 0.714285714285711 7.30519480519481  C 0.319776785714282 7.30519480519481  0 7.63223924512987  0 8.03571428571428  L 0 9.86201298701299  Z M 0 17.1672077922078  C 0 17.5706828327922  0.319776785714282 17.8977272727273  0.714285714285711 17.8977272727273  L 19.2857142857143 17.8977272727273  C 19.6802232142857 17.8977272727273  20 17.5706828327922  20 17.1672077922078  L 20 15.3409090909091  C 20 14.9374340503247  19.6802232142857 14.6103896103896  19.2857142857143 14.6103896103896  L 0.714285714285711 14.6103896103896  C 0.319776785714282 14.6103896103896  0 14.9374340503247  0 15.3409090909091  L 0 17.1672077922078  Z " fill-rule="nonzero" fill="#aaaaaa" stroke="none" transform="matrix(1 0 0 1 15 13 )" />
  </g>
</svg>