<?xml version="1.0" encoding="utf-8"?>
<svg version="1.1" xmlns:xlink="http://www.w3.org/1999/xlink" width="16px" height="16px" xmlns="http://www.w3.org/2000/svg">
  <g transform="matrix(1 0 0 1 -343 -14 )">
    <path d="M 15.7473684210526 14.8678362573099  C 16.0405458089669 14.5746588693957  16.0405458089669 14.1005847953216  15.7504873294347 13.8074074074074  L 12.6409356725146 10.6978557504873  C 12.5005847953216 10.5575048732943  12.3103313840156 10.4795321637427  12.1107212475634 10.4795321637427  L 11.6023391812866 10.4795321637427  C 12.4631578947368 9.3785575048733  12.9746588693957 7.99376218323587  12.9746588693957 6.48732943469786  C 12.9746588693957 2.9037037037037  10.070955165692 0  6.48732943469786 0  C 2.9037037037037 0  0 2.9037037037037  0 6.48732943469786  C 0 10.070955165692  2.9037037037037 12.9746588693957  6.48732943469786 12.9746588693957  C 7.99376218323587 12.9746588693957  9.3785575048733 12.4631578947368  10.4795321637427 11.6023391812866  L 10.4795321637427 12.1107212475634  C 10.4795321637427 12.3103313840156  10.5575048732943 12.5005847953216  10.6978557504873 12.6409356725146  L 13.8074074074074 15.7504873294347  C 14.1005847953216 16.0436647173489  14.5746588693957 16.0436647173489  14.8647173489279 15.7504873294347  L 15.7473684210526 14.8678362573099  Z M 10.4795321637427 6.48732943469786  C 10.4795321637427 8.69239766081872  8.69551656920078 10.4795321637427  6.48732943469786 10.4795321637427  C 4.282261208577 10.4795321637427  2.49512670565302 8.69551656920078  2.49512670565302 6.48732943469786  C 2.49512670565302 4.282261208577  4.27914230019493 2.49512670565302  6.48732943469786 2.49512670565302  C 8.69239766081872 2.49512670565302  10.4795321637427 4.27914230019493  10.4795321637427 6.48732943469786  Z " fill-rule="nonzero" fill="#aaaaaa" stroke="none" transform="matrix(1 0 0 1 343 14 )" />
  </g>
</svg>