<?xml version="1.0" encoding="utf-8"?>
<svg version="1.1" xmlns:xlink="http://www.w3.org/1999/xlink" width="30px" height="25px" xmlns="http://www.w3.org/2000/svg">
  <g transform="matrix(1 0 0 1 -149 -9 )">
    <path d="M 28.3392857142857 0  C 29.2566964285714 0  30 0.619419642857139  30 1.37834821428572  L 30 23.6160714285714  C 30 24.3805803571429  29.2566964285714 24.9944196428571  28.3459821428571 24.9944196428571  L 20.6986607142857 24.9944196428571  L 20.6986607142857 15.3180803571429  L 24.5959821428571 15.3180803571429  L 25.1785714285714 11.5457589285714  L 20.6919642857143 11.5457589285714  L 20.6919642857143 9.13504464285714  C 20.6919642857143 8.04129464285714  21.0535714285714 7.29910714285714  22.9352678571429 7.29910714285714  L 25.3325892857143 7.29910714285714  L 25.3325892857143 3.92299107142858  C 24.9174107142857 3.87834821428572  23.4977678571429 3.77232142857142  21.8370535714286 3.77232142857142  C 18.3816964285714 3.77232142857142  16.0111607142857 5.53013392857142  16.0111607142857 8.76116071428572  L 16.0111607142857 11.5457589285714  L 12.1004464285714 11.5457589285714  L 12.1004464285714 15.3180803571429  L 16.0111607142857 15.3180803571429  L 16.0111607142857 25  L 1.65401785714285 25  C 0.743303571428567 25  0 24.3805803571429  0 23.6216517857143  L 0 1.37834821428572  C 0 0.619419642857139  0.743303571428567 0  1.65401785714285 0  L 28.3392857142857 0  Z " fill-rule="nonzero" fill="#aaaaaa" stroke="none" transform="matrix(1 0 0 1 149 9 )" />
  </g>
</svg>