<?xml version="1.0" encoding="utf-8"?>
<svg version="1.1" xmlns:xlink="http://www.w3.org/1999/xlink" width="48px" height="40px" xmlns="http://www.w3.org/2000/svg">
  <g transform="matrix(1 0 0 1 -35 -13 )">
    <path d="M 45.3428571428571 0  C 46.8107142857143 0  48 0.991071428571422  48 2.20535714285716  L 48 37.7857142857143  C 48 39.0089285714286  46.8107142857143 39.9910714285714  45.3535714285714 40  L 33 40  L 33 24.5089285714286  L 39.3535714285714 24.5089285714286  L 40.2857142857143 18.4732142857143  L 33.1071428571429 18.4732142857143  L 33.1071428571429 14.6160714285714  C 33.1071428571429 12.8660714285714  33.6857142857143 11.6785714285714  36.6964285714286 11.6785714285714  L 40.5321428571429 11.6785714285714  L 40.5321428571429 6.27678571428573  C 39.8678571428572 6.20535714285716  37.5964285714286 6.03571428571427  34.9392857142857 6.03571428571427  C 29.4107142857143 6.03571428571427  25.6178571428571 8.84821428571427  25.6178571428571 14.0178571428572  L 25.6178571428571 18.4732142857143  L 19.3607142857143 18.4732142857143  L 19.3607142857143 24.5089285714286  L 25 24.5089285714286  L 25 40  L 2.64642857142856 40  C 1.18928571428571 40  0 39.0089285714286  0 37.7946428571428  L 0 2.20535714285716  C 0 0.991071428571422  1.18928571428571 0  2.64642857142856 0  L 45.3428571428571 0  Z " fill-rule="nonzero" fill="#aaaaaa" stroke="none" transform="matrix(1 0 0 1 35 13 )" />
  </g>
</svg>