<?xml version="1.0" encoding="utf-8"?>
<svg version="1.1" xmlns:xlink="http://www.w3.org/1999/xlink" width="71px" height="28px" xmlns="http://www.w3.org/2000/svg">
  <defs>
    <mask fill="white" id="clip246">
      <path d="M 0 21  L 0 7  C 0 3.08  2.47936507936513 0  5.63492063492063 0  L 40.5714285714286 0  L 65.3650793650794 0  C 68.5206349206349 0  71 3.08  71 7  L 71 21  C 71 24.92  68.5206349206349 28  65.3650793650794 28  L 5.63492063492063 28  C 2.47936507936513 28  0 24.92  0 21  Z " fill-rule="evenodd" />
    </mask>
  </defs>
  <g transform="matrix(1 0 0 1 -824 -22 )">
    <path d="M 0 21  L 0 7  C 0 3.08  2.47936507936513 0  5.63492063492063 0  L 40.5714285714286 0  L 65.3650793650794 0  C 68.5206349206349 0  71 3.08  71 7  L 71 21  C 71 24.92  68.5206349206349 28  65.3650793650794 28  L 5.63492063492063 28  C 2.47936507936513 28  0 24.92  0 21  Z " fill-rule="nonzero" fill="#ffffff" stroke="none" transform="matrix(1 0 0 1 824 22 )" />
    <path d="M 0 21  L 0 7  C 0 3.08  2.47936507936513 0  5.63492063492063 0  L 40.5714285714286 0  L 65.3650793650794 0  C 68.5206349206349 0  71 3.08  71 7  L 71 21  C 71 24.92  68.5206349206349 28  65.3650793650794 28  L 5.63492063492063 28  C 2.47936507936513 28  0 24.92  0 21  Z " stroke-width="2" stroke="#aaaaaa" fill="none" transform="matrix(1 0 0 1 824 22 )" mask="url(#clip246)" />
  </g>
</svg>