<?xml version="1.0" encoding="utf-8"?>
<svg version="1.1" xmlns:xlink="http://www.w3.org/1999/xlink" width="63px" height="28px" xmlns="http://www.w3.org/2000/svg">
  <defs>
    <mask fill="white" id="clip245">
      <path d="M 0 21  L 0 7  C 0 3.08  2.20000000000005 0  5 0  L 36 0  L 58 0  C 60.8 0  63 3.08  63 7  L 63 21  C 63 24.92  60.8 28  58 28  L 5 28  C 2.20000000000005 28  0 24.92  0 21  Z " fill-rule="evenodd" />
    </mask>
  </defs>
  <g transform="matrix(1 0 0 1 -618 -22 )">
    <path d="M 0 21  L 0 7  C 0 3.08  2.20000000000005 0  5 0  L 36 0  L 58 0  C 60.8 0  63 3.08  63 7  L 63 21  C 63 24.92  60.8 28  58 28  L 5 28  C 2.20000000000005 28  0 24.92  0 21  Z " fill-rule="nonzero" fill="#ffffff" stroke="none" transform="matrix(1 0 0 1 618 22 )" />
    <path d="M 0 21  L 0 7  C 0 3.08  2.20000000000005 0  5 0  L 36 0  L 58 0  C 60.8 0  63 3.08  63 7  L 63 21  C 63 24.92  60.8 28  58 28  L 5 28  C 2.20000000000005 28  0 24.92  0 21  Z " stroke-width="2" stroke="#aaaaaa" fill="none" transform="matrix(1 0 0 1 618 22 )" mask="url(#clip245)" />
  </g>
</svg>