<?xml version="1.0" encoding="utf-8"?>
<svg version="1.1" xmlns:xlink="http://www.w3.org/1999/xlink" width="28px" height="28px" xmlns="http://www.w3.org/2000/svg">
  <g transform="matrix(1 0 0 1 -11 -11 )">
    <path d="M 28 14  C 28 6.26612903225806  21.7338709677419 0  14 0  C 6.26612903225806 0  0 6.26612903225806  0 14  C 0 21.7338709677419  6.26612903225806 28  14 28  C 21.7338709677419 28  28 21.7338709677419  28 14  Z M 17.1612903225806 14  L 20.8645161290323 17.675  C 21.1298387096774 17.9403225806452  21.1298387096774 18.3693548387097  20.8645161290323 18.6346774193548  L 18.6290322580645 20.8645161290323  C 18.3637096774194 21.1298387096774  17.9346774193548 21.1298387096774  17.6693548387097 20.8645161290323  L 14 17.1612903225806  L 10.325 20.8645161290323  C 10.0596774193548 21.1298387096774  9.63064516129032 21.1298387096774  9.36532258064518 20.8645161290323  L 7.13548387096775 18.6290322580645  C 6.87016129032257 18.3637096774194  6.87016129032257 17.9346774193548  7.13548387096775 17.6693548387097  L 10.8387096774194 14  L 7.13548387096775 10.325  C 6.87016129032257 10.0596774193548  6.87016129032257 9.63064516129032  7.13548387096775 9.36532258064518  L 9.37096774193549 7.12983870967743  C 9.63629032258063 6.86451612903225  10.0653225806452 6.86451612903225  10.3306451612903 7.12983870967743  L 14 10.8387096774194  L 17.675 7.13548387096775  C 17.9403225806452 6.87016129032257  18.3693548387097 6.87016129032257  18.6346774193548 7.13548387096775  L 20.8701612903226 9.37096774193549  C 21.1354838709677 9.63629032258063  21.1354838709677 10.0653225806452  20.8701612903226 10.3306451612903  L 17.1612903225806 14  Z " fill-rule="nonzero" fill="#7f7f7f" stroke="none" transform="matrix(1 0 0 1 11 11 )" />
  </g>
</svg>