<?xml version="1.0" encoding="utf-8"?>
<svg version="1.1" xmlns:xlink="http://www.w3.org/1999/xlink" width="28px" height="28px" xmlns="http://www.w3.org/2000/svg">
  <g transform="matrix(1 0 0 1 -14 -9 )">
    <path d="M 20.8268229166667 11.83984375  C 20.9422743055556 11.9552951388889  21 12.0920138888889  21 12.25  L 21 15.75  C 21 15.9079861111111  20.9422743055556 16.0447048611111  20.8268229166667 16.16015625  C 20.7113715277778 16.2756076388889  20.5746527777778 16.3333333333333  20.4166666666667 16.3333333333333  L 14 16.3333333333333  L 14 19.8333333333333  C 14 20.0034722222222  13.9453125 20.1432291666667  13.8359375 20.2526041666667  C 13.7265625 20.3619791666667  13.5868055555556 20.4166666666667  13.4166666666667 20.4166666666667  C 13.2708333333333 20.4166666666667  13.125 20.3559027777778  12.9791666666667 20.234375  L 7.1640625 14.4192708333333  C 7.0546875 14.3098958333333  7 14.1701388888889  7 14  C 7 13.8298611111111  7.0546875 13.6901041666667  7.1640625 13.5807291666667  L 12.9973958333333 7.74739583333333  C 13.1067708333333 7.63802083333333  13.2465277777778 7.58333333333333  13.4166666666667 7.58333333333333  C 13.5746527777778 7.58333333333333  13.7113715277778 7.64105902777778  13.8268229166667 7.75651041666667  C 13.9422743055556 7.87196180555555  14 8.00868055555555  14 8.16666666666667  L 14 11.6666666666667  L 20.4166666666667 11.6666666666667  C 20.5746527777778 11.6666666666667  20.7113715277778 11.7243923611111  20.8268229166667 11.83984375  Z M 22.5859375 18.9765625  C 23.4730902777778 17.4574652777778  23.9166666666667 15.7986111111111  23.9166666666667 14  C 23.9166666666667 12.2013888888889  23.4730902777778 10.5425347222222  22.5859375 9.0234375  C 21.6987847222222 7.50434027777778  20.4956597222222 6.30121527777778  18.9765625 5.4140625  C 17.4574652777778 4.52690972222222  15.7986111111111 4.08333333333333  14 4.08333333333333  C 12.2013888888889 4.08333333333333  10.5425347222222 4.52690972222222  9.0234375 5.4140625  C 7.50434027777778 6.30121527777778  6.30121527777778 7.50434027777778  5.4140625 9.0234375  C 4.52690972222222 10.5425347222222  4.08333333333333 12.2013888888889  4.08333333333333 14  C 4.08333333333333 15.7986111111111  4.52690972222222 17.4574652777778  5.4140625 18.9765625  C 6.30121527777778 20.4956597222222  7.50434027777778 21.6987847222222  9.0234375 22.5859375  C 10.5425347222222 23.4730902777778  12.2013888888889 23.9166666666667  14 23.9166666666667  C 15.7986111111111 23.9166666666667  17.4574652777778 23.4730902777778  18.9765625 22.5859375  C 20.4956597222222 21.6987847222222  21.6987847222222 20.4956597222222  22.5859375 18.9765625  Z M 26.1223958333333 6.97265625  C 27.3741319444444 9.11762152777778  28 11.4600694444444  28 14  C 28 16.5399305555556  27.3741319444444 18.8823784722222  26.1223958333333 21.02734375  C 24.8706597222222 23.1723090277778  23.1723090277778 24.8706597222222  21.02734375 26.1223958333333  C 18.8823784722222 27.3741319444444  16.5399305555556 28  14 28  C 11.4600694444444 28  9.11762152777778 27.3741319444444  6.97265625 26.1223958333333  C 4.82769097222222 24.8706597222222  3.12934027777778 23.1723090277778  1.87760416666667 21.02734375  C 0.625868055555555 18.8823784722222  0 16.5399305555556  0 14  C 0 11.4600694444444  0.625868055555555 9.11762152777778  1.87760416666667 6.97265625  C 3.12934027777778 4.82769097222222  4.82769097222222 3.12934027777778  6.97265625 1.87760416666667  C 9.11762152777778 0.625868055555553  11.4600694444444 0  14 0  C 16.5399305555556 0  18.8823784722222 0.625868055555553  21.02734375 1.87760416666667  C 23.1723090277778 3.12934027777778  24.8706597222222 4.82769097222222  26.1223958333333 6.97265625  Z " fill-rule="nonzero" fill="#aaaaaa" stroke="none" transform="matrix(1 0 0 1 14 9 )" />
  </g>
</svg>