<?xml version="1.0" encoding="utf-8"?>
<svg version="1.1" xmlns:xlink="http://www.w3.org/1999/xlink" width="24px" height="24px" xmlns="http://www.w3.org/2000/svg">
  <g transform="matrix(1 0 0 1 -338 -10 )">
    <path d="M 24 12  C 24 5.37096774193548  18.6290322580645 0  12 0  C 5.37096774193548 0  0 5.37096774193548  0 12  C 0 18.6290322580645  5.37096774193548 24  12 24  C 18.6290322580645 24  24 18.6290322580645  24 12  Z M 21.6774193548387 12  C 21.6774193548387 17.3467741935484  17.3467741935484 21.6774193548387  12 21.6774193548387  C 6.65322580645162 21.6774193548387  2.32258064516129 17.3467741935484  2.32258064516129 12  C 2.32258064516129 6.65322580645162  6.65322580645162 2.32258064516129  12 2.32258064516129  C 17.3467741935484 2.32258064516129  21.6774193548387 6.65322580645162  21.6774193548387 12  Z M 16.9258064516129 8.16774193548388  C 17.1532258064516 8.39516129032258  17.1532258064516 8.76290322580645  16.9258064516129 8.99032258064516  L 13.9161290322581 12  L 16.9258064516129 15.0096774193548  C 17.1532258064516 15.2370967741936  17.1532258064516 15.6048387096774  16.9258064516129 15.8322580645161  L 15.8322580645161 16.9258064516129  C 15.6048387096774 17.1532258064516  15.2370967741936 17.1532258064516  15.0096774193548 16.9258064516129  L 12 13.9161290322581  L 8.99032258064516 16.9258064516129  C 8.76290322580645 17.1532258064516  8.39516129032258 17.1532258064516  8.16774193548386 16.9258064516129  L 7.0741935483871 15.8322580645161  C 6.8467741935484 15.6048387096774  6.8467741935484 15.2370967741936  7.0741935483871 15.0096774193548  L 10.0838709677419 12  L 7.0741935483871 8.99032258064516  C 6.8467741935484 8.76290322580645  6.8467741935484 8.39516129032258  7.0741935483871 8.16774193548386  L 8.16774193548388 7.0741935483871  C 8.39516129032258 6.8467741935484  8.76290322580645 6.8467741935484  8.99032258064517 7.0741935483871  L 12 10.0838709677419  L 15.0096774193548 7.0741935483871  C 15.2370967741936 6.8467741935484  15.6048387096774 6.8467741935484  15.8322580645161 7.0741935483871  L 16.9258064516129 8.16774193548388  Z " fill-rule="nonzero" fill="#7f7f7f" stroke="none" transform="matrix(1 0 0 1 338 10 )" />
  </g>
</svg>